<mxfile host="65bd71144e">
    <diagram id="SRrs_ta1pIiSuB_7zpYr" name="Seite-1">
        <mxGraphModel dx="2516" dy="1152" grid="1" gridSize="10" guides="1" tooltips="1" connect="1" arrows="1" fold="1" page="1" pageScale="1" pageWidth="827" pageHeight="1169" math="0" shadow="0">
            <root>
                <mxCell id="0"/>
                <mxCell id="1" parent="0"/>
                <mxCell id="2" value="fedlex:oc/2019/137" style="rounded=0;whiteSpace=wrap;html=1;" parent="1" vertex="1">
                    <mxGeometry x="440" y="200" width="214" height="40" as="geometry"/>
                </mxCell>
                <mxCell id="52" value="jolux:LegalResourceIsPartOf" style="edgeStyle=none;html=1;exitX=0.5;exitY=0;exitDx=0;exitDy=0;entryX=0.5;entryY=1;entryDx=0;entryDy=0;" parent="1" source="51" target="2" edge="1">
                    <mxGeometry relative="1" as="geometry">
                        <mxPoint x="527" y="320" as="targetPoint"/>
                    </mxGeometry>
                </mxCell>
                <mxCell id="51" value="fedlex:oc/2019/137/text" style="rounded=0;whiteSpace=wrap;html=1;" parent="1" vertex="1">
                    <mxGeometry x="440" y="360" width="214" height="40" as="geometry"/>
                </mxCell>
                <mxCell id="58" value="rdf:type" style="edgeStyle=orthogonalEdgeStyle;curved=1;html=1;exitX=0.5;exitY=0;exitDx=0;exitDy=0;" parent="1" source="56" target="57" edge="1">
                    <mxGeometry relative="1" as="geometry"/>
                </mxCell>
                <mxCell id="60" style="edgeStyle=orthogonalEdgeStyle;curved=1;html=1;entryX=0.5;entryY=1;entryDx=0;entryDy=0;exitX=0;exitY=0.5;exitDx=0;exitDy=0;" parent="1" source="56" target="51" edge="1">
                    <mxGeometry relative="1" as="geometry"/>
                </mxCell>
                <mxCell id="61" value="jolux:impactFromLegalResource" style="edgeLabel;html=1;align=center;verticalAlign=middle;resizable=0;points=[];" parent="60" vertex="1" connectable="0">
                    <mxGeometry x="-0.22" y="-11" relative="1" as="geometry">
                        <mxPoint y="-39" as="offset"/>
                    </mxGeometry>
                </mxCell>
                <mxCell id="82" value="jolux:impactToLegalResource" style="edgeStyle=orthogonalEdgeStyle;curved=1;html=1;entryX=0.5;entryY=1;entryDx=0;entryDy=0;exitX=1;exitY=0.5;exitDx=0;exitDy=0;" parent="1" source="56" target="75" edge="1">
                    <mxGeometry x="0.2913" relative="1" as="geometry">
                        <mxPoint as="offset"/>
                    </mxGeometry>
                </mxCell>
                <mxCell id="56" value="fedlex:cc/1999/404/impact/226" style="rounded=0;whiteSpace=wrap;html=1;" parent="1" vertex="1">
                    <mxGeometry x="679" y="520" width="280" height="40" as="geometry"/>
                </mxCell>
                <mxCell id="57" value="jolux:Impact" style="rounded=1;whiteSpace=wrap;html=1;fillColor=#d5e8d4;strokeColor=#82b366;" parent="1" vertex="1">
                    <mxGeometry x="724" y="440" width="190" height="40" as="geometry"/>
                </mxCell>
                <mxCell id="65" style="edgeStyle=orthogonalEdgeStyle;html=1;exitX=0;exitY=0.5;exitDx=0;exitDy=0;entryX=1;entryY=0.5;entryDx=0;entryDy=0;" parent="1" target="74" edge="1">
                    <mxGeometry relative="1" as="geometry">
                        <mxPoint x="978" y="220" as="sourcePoint"/>
                    </mxGeometry>
                </mxCell>
                <mxCell id="66" value="&lt;div&gt;rdf:type&lt;/div&gt;" style="edgeLabel;html=1;align=center;verticalAlign=middle;resizable=0;points=[];" parent="65" vertex="1" connectable="0">
                    <mxGeometry relative="1" as="geometry">
                        <mxPoint as="offset"/>
                    </mxGeometry>
                </mxCell>
                <mxCell id="67" value="fedlex:cc/1999/404" style="rounded=0;whiteSpace=wrap;html=1;" parent="1" vertex="1">
                    <mxGeometry x="984" y="200" width="216" height="40" as="geometry"/>
                </mxCell>
                <mxCell id="68" value="jolux:Act" style="rounded=1;whiteSpace=wrap;html=1;fillColor=#d5e8d4;strokeColor=#82b366;" parent="1" vertex="1">
                    <mxGeometry x="724" y="200" width="190" height="40" as="geometry"/>
                </mxCell>
                <mxCell id="72" value="jolux:LegalResourceIsPartOf" style="edgeStyle=none;html=1;exitX=0.5;exitY=0;exitDx=0;exitDy=0;entryX=0.5;entryY=1;entryDx=0;entryDy=0;" parent="1" source="75" target="67" edge="1">
                    <mxGeometry relative="1" as="geometry">
                        <mxPoint x="1104" y="320" as="targetPoint"/>
                    </mxGeometry>
                </mxCell>
                <mxCell id="74" value="jolux:ConsolidationAbstract" style="rounded=1;whiteSpace=wrap;html=1;fillColor=#d5e8d4;strokeColor=#82b366;" parent="1" vertex="1">
                    <mxGeometry x="724" y="280" width="190" height="40" as="geometry"/>
                </mxCell>
                <mxCell id="75" value="fedlex:cc/1999/404/text" style="rounded=0;whiteSpace=wrap;html=1;" parent="1" vertex="1">
                    <mxGeometry x="984" y="360" width="216" height="40" as="geometry"/>
                </mxCell>
                <mxCell id="76" value="rdf:type" style="edgeStyle=orthogonalEdgeStyle;rounded=0;html=1;exitX=0;exitY=0.5;exitDx=0;exitDy=0;entryX=1;entryY=0.5;entryDx=0;entryDy=0;" parent="1" target="77" edge="1">
                    <mxGeometry relative="1" as="geometry">
                        <mxPoint x="978" y="380" as="sourcePoint"/>
                    </mxGeometry>
                </mxCell>
                <mxCell id="77" value="jolux:LegalResourceSubdivision" style="rounded=1;whiteSpace=wrap;html=1;fillColor=#d5e8d4;strokeColor=#82b366;" parent="1" vertex="1">
                    <mxGeometry x="724" y="360" width="190" height="40" as="geometry"/>
                </mxCell>
                <mxCell id="78" style="edgeStyle=orthogonalEdgeStyle;html=1;exitX=1;exitY=0.5;exitDx=0;exitDy=0;entryX=0;entryY=0.5;entryDx=0;entryDy=0;" parent="1" source="2" target="68" edge="1">
                    <mxGeometry relative="1" as="geometry">
                        <mxPoint x="648" y="300" as="sourcePoint"/>
                        <mxPoint x="720" y="220" as="targetPoint"/>
                    </mxGeometry>
                </mxCell>
                <mxCell id="79" value="&lt;div&gt;rdf:type&lt;/div&gt;" style="edgeLabel;html=1;align=center;verticalAlign=middle;resizable=0;points=[];" parent="78" vertex="1" connectable="0">
                    <mxGeometry relative="1" as="geometry">
                        <mxPoint as="offset"/>
                    </mxGeometry>
                </mxCell>
                <mxCell id="80" style="edgeStyle=orthogonalEdgeStyle;html=1;exitX=1;exitY=0.5;exitDx=0;exitDy=0;entryX=0;entryY=0.5;entryDx=0;entryDy=0;" parent="1" target="77" edge="1">
                    <mxGeometry relative="1" as="geometry">
                        <mxPoint x="648" y="380" as="sourcePoint"/>
                        <mxPoint x="720" y="380" as="targetPoint"/>
                    </mxGeometry>
                </mxCell>
                <mxCell id="81" value="&lt;div&gt;rdf:type&lt;/div&gt;" style="edgeLabel;html=1;align=center;verticalAlign=middle;resizable=0;points=[];" parent="80" vertex="1" connectable="0">
                    <mxGeometry relative="1" as="geometry">
                        <mxPoint as="offset"/>
                    </mxGeometry>
                </mxCell>
            </root>
        </mxGraphModel>
    </diagram>
</mxfile>